<?xml version="1.0" standalone="no"?>
<!DOCTYPE svg PUBLIC "-//W3C//DTD SVG 20010904//EN"
 "http://www.w3.org/TR/2001/REC-SVG-20010904/DTD/svg10.dtd">
<svg version="1.0" xmlns="http://www.w3.org/2000/svg"
 width="400.000000pt" height="400.000000pt" viewBox="0 0 400.000000 400.000000"
 preserveAspectRatio="xMidYMid meet">
<metadata>
Created by potrace 1.14, written by Peter Selinger 2001-2017
</metadata>
<g transform="translate(0.000000,400.000000) scale(0.100000,-0.100000)"
fill="#000000" stroke="none">
<path d="M1877 3994 c-1 -1 -31 -5 -66 -8 -130 -13 -282 -44 -386 -78 -33 -11
-67 -21 -75 -23 -27 -6 -190 -76 -222 -95 -17 -10 -35 -17 -39 -15 -4 3 -12
-2 -19 -10 -7 -8 -17 -15 -22 -15 -5 0 -21 -8 -36 -19 -15 -10 -58 -38 -97
-61 -38 -24 -74 -49 -80 -55 -5 -6 -26 -22 -45 -35 -53 -36 -73 -55 -199 -181
-114 -114 -130 -132 -203 -233 -134 -185 -286 -512 -314 -673 -3 -15 -7 -36
-10 -45 -8 -25 -22 -98 -31 -158 -2 -19 -7 -48 -10 -65 -7 -45 -11 -398 -4
-410 3 -5 7 -26 8 -45 2 -34 6 -64 19 -140 14 -84 82 -318 113 -385 32 -70
105 -217 127 -254 29 -49 122 -190 138 -208 6 -6 22 -26 36 -45 41 -55 230
-241 305 -300 75 -59 255 -181 255 -172 0 3 12 -3 28 -14 32 -22 186 -96 222
-107 14 -4 39 -13 55 -20 36 -16 162 -56 190 -60 11 -2 51 -11 89 -19 38 -9
90 -18 115 -21 25 -3 69 -9 96 -12 69 -9 317 -8 390 1 33 4 80 9 104 12 25 3
47 7 51 9 3 2 25 6 49 10 47 7 271 70 299 84 9 5 28 13 42 19 70 29 127 54
140 62 8 6 26 15 39 20 14 6 61 33 105 60 387 233 683 590 841 1014 32 86 78
244 90 311 2 17 7 41 10 55 14 68 20 171 20 335 -1 195 -5 246 -30 375 -3 14
-7 35 -10 48 -22 116 -95 324 -159 452 -79 157 -139 252 -246 384 -56 70 -199
215 -256 260 -15 12 -40 33 -58 48 -17 15 -46 35 -63 45 -18 10 -33 21 -33 25
0 4 -17 17 -37 28 -21 11 -51 29 -68 40 -133 85 -375 187 -525 221 -25 6 -54
13 -65 16 -54 13 -143 29 -230 39 -53 6 -333 13 -338 8z"/>
</g>
</svg>
